<svg width="100" height="100" viewBox="0 0 100 100" fill="none" xmlns="http://www.w3.org/2000/svg">
<g clip-path="url(#clip0_335_2)">
<rect width="100" height="100" rx="50" fill="black"/>
<path d="M57.9514 0.694423C63.016 0.796366 68.0109 1.89485 72.6509 3.92717C77.291 5.95949 81.4853 8.88583 84.9944 12.5391C88.5036 16.1924 91.2587 20.5011 93.1027 25.2192C94.9466 29.9372 95.8432 34.9723 95.7413 40.0369C95.5354 50.2653 91.2748 59.993 83.8966 67.08C76.5185 74.167 66.6272 78.0327 56.3988 77.8268C51.3342 77.7249 46.3393 76.6264 41.6993 74.5941C37.0592 72.5618 32.8649 69.6354 29.3558 65.9821C25.8466 62.3289 23.0915 58.0202 21.2475 53.3021C19.4035 48.584 18.5069 43.5489 18.6089 38.4843C18.7108 33.4198 19.8093 28.4248 21.8416 23.7848C23.874 19.1447 26.8003 14.9504 30.4536 11.4413C34.1069 7.93217 38.4156 5.17698 43.1336 3.33303C47.8517 1.48908 52.8868 0.59248 57.9514 0.694423V0.694423Z" stroke="black"/>
<path d="M90.2395 55.8381L82.8539 53.3579L82.9036 50.8874L90.3841 48.6505L90.3458 50.5541L83.5196 52.2861L83.5255 51.9922L90.2778 53.9345L90.2395 55.8381Z" fill="white"/>
<path d="M81.8301 58.2992C82.014 57.5371 82.3348 56.904 82.7925 56.4C83.2547 55.8971 83.8093 55.5484 84.4563 55.3541C85.1021 55.1643 85.7903 55.1575 86.5206 55.3338C87.2555 55.5111 87.8626 55.8304 88.3417 56.2917C88.8243 56.7586 89.1544 57.3207 89.3318 57.978C89.5092 58.6353 89.506 59.345 89.3221 60.1071C89.1382 60.8693 88.8174 61.5023 88.3597 62.0064C87.902 62.5104 87.3525 62.8579 86.7112 63.0488C86.0733 63.2453 85.3869 63.2549 84.652 63.0775C83.9216 62.9013 83.3128 62.5791 82.8257 62.1111C82.3375 61.6477 82.0024 61.0868 81.8204 60.4284C81.643 59.7711 81.6462 59.0614 81.8301 58.2992ZM83.2931 58.6523C83.1935 59.0651 83.2017 59.4487 83.3178 59.8032C83.4339 60.1576 83.6413 60.4621 83.9399 60.7166C84.2431 60.9722 84.626 61.1558 85.0888 61.2675C85.5515 61.3791 85.9715 61.3893 86.3488 61.2979C86.7306 61.2076 87.0517 61.0307 87.3122 60.7671C87.5726 60.5035 87.7526 60.1653 87.8523 59.7525C87.9508 59.3442 87.9448 58.9611 87.8344 58.6032C87.7228 58.2498 87.5177 57.9459 87.2191 57.6914C86.925 57.438 86.5466 57.2555 86.0838 57.1438C85.6211 57.0322 85.1966 57.0209 84.8102 57.1101C84.4284 57.2004 84.105 57.3768 83.84 57.6393C83.5739 57.9063 83.3916 58.244 83.2931 58.6523Z" fill="white"/>
<path d="M79.9307 64.3104L86.6134 67.567L85.8161 69.2031L79.1334 65.9465L79.9307 64.3104ZM87.4451 68.9923C87.5759 68.7239 87.7617 68.5237 88.0025 68.3918C88.2454 68.2662 88.4969 68.2668 88.757 68.3935C89.0129 68.5182 89.1641 68.7139 89.2106 68.9806C89.2551 69.2515 89.212 69.5211 89.0811 69.7896C88.9523 70.0539 88.7686 70.2499 88.5299 70.3776C88.2912 70.5052 88.0439 70.5067 87.788 70.382C87.5279 70.2552 87.3724 70.0575 87.3217 69.7888C87.2751 69.5221 87.3163 69.2566 87.4451 68.9923Z" fill="white"/>
<path d="M77.0222 69.5551L82.8486 74.1722L81.7052 75.6151L79.7685 74.0804L80.2203 73.8935C80.4437 74.1301 80.6278 74.3862 80.7726 74.6617C80.9211 74.9402 81.0143 75.2283 81.0521 75.5262C81.0936 75.8271 81.0692 76.1322 80.9788 76.4416C80.8884 76.7511 80.7243 77.0557 80.4867 77.3556C80.2983 77.5934 80.1322 77.7654 79.9884 77.8718C79.8453 77.9847 79.7498 78.0489 79.7017 78.0644L78.5882 76.7533C78.6428 76.737 78.7333 76.6867 78.8597 76.6023C78.9869 76.5245 79.1244 76.3923 79.2722 76.2057C79.507 75.9095 79.6529 75.6202 79.7099 75.3379C79.7676 75.0621 79.7569 74.7976 79.6778 74.5443C79.6023 74.294 79.4824 74.062 79.3182 73.8485C79.1576 73.6379 78.9767 73.4529 78.7755 73.2935L75.8788 70.998L77.0222 69.5551Z" fill="white"/>
<path d="M68.4263 90.6196L63.497 80.8519L65.1156 80.0351L70.0449 89.8028L68.4263 90.6196Z" fill="white"/>
<path d="M61.4083 85.1557L61.7331 86.4237L56.6947 87.714L56.8113 87.3229C56.8182 87.35 56.8258 87.3794 56.8339 87.411C56.8431 87.4472 56.8506 87.4766 56.8564 87.4992C56.9363 87.8111 57.0811 88.0847 57.2907 88.3201C57.5014 88.56 57.7706 88.7271 58.0983 88.8214C58.4271 88.9203 58.8107 88.9136 59.2493 88.8013C59.6833 88.6901 60.037 88.5008 60.3105 88.2332C60.5807 87.9713 60.7599 87.646 60.8482 87.2573C60.932 86.8697 60.9126 86.4363 60.7898 85.9571C60.6637 85.4644 60.4712 85.0608 60.2125 84.7465C59.9549 84.4368 59.6413 84.228 59.2717 84.1204C58.8987 84.0184 58.4794 84.027 58.0138 84.1462C57.6974 84.2273 57.4314 84.3267 57.2159 84.4445C57.0004 84.5623 56.833 84.6895 56.7138 84.826C56.5912 84.9682 56.5088 85.1073 56.4666 85.2434C56.4199 85.3806 56.4048 85.5097 56.4213 85.6307L54.6446 86.0857C54.5942 85.7759 54.6201 85.4537 54.7223 85.1192C54.8211 84.7904 54.9964 84.4685 55.2482 84.1536C55.5011 83.8431 55.8333 83.5605 56.245 83.3058C56.6533 83.0567 57.1423 82.8592 57.7119 82.7133C58.4849 82.5154 59.2013 82.5005 59.861 82.6688C60.5207 82.837 61.0857 83.162 61.5559 83.6438C62.0216 84.1267 62.3476 84.7321 62.534 85.4599C62.725 86.2058 62.7296 86.9008 62.5476 87.5447C62.3612 88.1898 62.0163 88.743 61.513 89.2043C61.0109 89.6701 60.3823 89.9996 59.6273 90.193C58.8498 90.3921 58.1379 90.4058 57.4918 90.234C56.8411 90.0635 56.2897 89.735 55.8376 89.2486C55.3866 88.7668 55.0656 88.1529 54.8746 87.4069C54.8503 87.312 54.8265 87.2097 54.8032 87.1001C54.78 86.9904 54.7665 86.9095 54.7628 86.8575L61.4083 85.1557Z" fill="white"/>
<path d="M43.2462 83.1563C43.6821 83.2368 44.0885 83.3617 44.4654 83.5309C44.8377 83.6993 45.1598 83.9083 45.4316 84.1578C45.6989 84.4065 45.8958 84.6896 46.0222 85.0072C46.1432 85.3285 46.1689 85.6773 46.0994 86.0536C46.0943 86.0812 46.0893 86.1087 46.0842 86.1362C46.0791 86.1638 46.0744 86.189 46.0702 86.212L44.2667 85.8789C44.2709 85.8559 44.2747 85.8353 44.2781 85.8169C44.2807 85.8032 44.2845 85.7825 44.2896 85.755C44.3447 85.4567 44.2508 85.2068 44.008 85.0054C43.7598 84.8077 43.3994 84.6652 42.9267 84.5779C42.6697 84.5304 42.4237 84.5135 42.1886 84.527C41.949 84.5397 41.7498 84.5907 41.5909 84.68C41.4275 84.7685 41.3292 84.9022 41.2962 85.0812C41.2428 85.3703 41.3538 85.6043 41.6292 85.7833C41.9 85.9615 42.3427 86.1595 42.9574 86.3774C43.2951 86.5015 43.6245 86.6453 43.9454 86.809C44.2664 86.9727 44.5511 87.1653 44.7997 87.3868C45.0437 87.6074 45.2273 87.8596 45.3505 88.1434C45.4691 88.4263 45.4949 88.749 45.4279 89.1115C45.3389 89.5934 45.1221 89.971 44.7774 90.2442C44.4273 90.5213 43.9956 90.7002 43.4824 90.781C42.9646 90.8609 42.4143 90.8471 41.8315 90.7395C41.2716 90.6361 40.7677 90.4481 40.3197 90.1755C39.8718 89.903 39.5328 89.5675 39.3026 89.1691C39.0679 88.7698 38.9954 88.327 39.0853 87.8405C39.0887 87.8222 39.0925 87.8015 39.0967 87.7786C39.1001 87.7602 39.1031 87.7442 39.1056 87.7304L40.8954 88.0609C40.8928 88.0747 40.8903 88.0884 40.8877 88.1022C40.8852 88.116 40.8822 88.132 40.8788 88.1504C40.8398 88.3615 40.8746 88.5459 40.9831 88.7035C41.0916 88.8612 41.2455 88.9916 41.4447 89.0949C41.6439 89.1981 41.8606 89.2713 42.0946 89.3146C42.3011 89.3527 42.5188 89.3692 42.7475 89.364C42.9754 89.3633 43.173 89.3215 43.3402 89.2385C43.5065 89.1601 43.6075 89.0245 43.6431 88.8317C43.677 88.6482 43.6288 88.485 43.4985 88.3424C43.3683 88.1997 43.175 88.0643 42.9186 87.9363C42.6614 87.8129 42.3617 87.6887 42.0193 87.5638C41.6945 87.4468 41.3712 87.3088 41.0494 87.1497C40.723 86.9898 40.4324 86.8033 40.1775 86.5901C39.9227 86.3769 39.7322 86.1235 39.6061 85.8297C39.4746 85.5396 39.444 85.2042 39.5144 84.8233C39.589 84.4194 39.7443 84.0922 39.9804 83.8416C40.2165 83.591 40.5103 83.4008 40.8617 83.2711C41.2076 83.1452 41.586 83.0751 41.9967 83.0608C42.4075 83.0465 42.824 83.0783 43.2462 83.1563Z" fill="white"/>
<path d="M37.3617 81.6319L34.4717 88.4812L32.7949 87.7736L35.6849 80.9244L37.3617 81.6319ZM33.0934 89.3887C33.3686 89.5049 33.5786 89.6795 33.7232 89.9128C33.8618 90.1486 33.8749 90.3997 33.7624 90.6663C33.6517 90.9286 33.4645 91.0902 33.2008 91.1511C32.9327 91.2102 32.6611 91.1817 32.3859 91.0656C32.115 90.9513 31.9094 90.7784 31.769 90.547C31.6286 90.3155 31.6137 90.0686 31.7244 89.8064C31.8369 89.5398 32.0259 89.3739 32.2915 89.3087C32.5553 89.2478 32.8226 89.2745 33.0934 89.3887Z" fill="white"/>
<path d="M29.2156 76.8938C29.4327 77.0475 29.6388 77.2248 29.8339 77.4257C30.0289 77.6267 30.1794 77.8504 30.2851 78.0968C30.3909 78.3431 30.4227 78.6172 30.3806 78.9191C30.3385 79.2209 30.1894 79.5527 29.9333 79.9146C29.8739 79.9984 29.8146 80.0822 29.7553 80.166C29.6933 80.2536 29.63 80.3431 29.5652 80.4345L27.5917 83.2227L29.0258 84.2378L28.1766 85.4377L27.5938 85.0252C27.3957 84.885 27.2341 84.782 27.1091 84.7164C26.9813 84.6546 26.8679 84.6371 26.7687 84.6641C26.6696 84.6912 26.5638 84.7678 26.4515 84.8942C26.3327 85.0216 26.1857 85.2092 26.0105 85.4567L25.327 86.4223L23.8186 85.3547L25.2341 83.3549L23.4286 82.077L24.2778 80.8771L26.0833 82.1551L27.8061 79.7211C27.8574 79.6487 27.9086 79.5763 27.9598 79.504C28.0083 79.4354 28.0555 79.3688 28.1013 79.304C28.3009 79.0221 28.427 78.7712 28.4797 78.5513C28.5325 78.3313 28.4313 78.1311 28.1761 77.9504C28.0542 77.8641 27.9318 77.7947 27.809 77.7421C27.6824 77.6867 27.5843 77.6516 27.5148 77.6367L28.3479 76.4597C28.4391 76.4843 28.5627 76.5318 28.7187 76.6022C28.8747 76.6726 29.0403 76.7698 29.2156 76.8938Z" fill="white"/>
<path d="M24.4623 77.2519L23.494 78.1328L19.994 74.2857L20.3942 74.2055C20.3735 74.2244 20.3511 74.2448 20.3269 74.2668C20.2993 74.2919 20.2768 74.3123 20.2596 74.328C20.0214 74.5447 19.8474 74.8007 19.7377 75.0962C19.6245 75.3948 19.6029 75.7109 19.673 76.0445C19.7397 76.3813 19.9254 76.7172 20.23 77.052C20.5315 77.3834 20.8645 77.6072 21.229 77.7236C21.5869 77.8396 21.9582 77.8456 22.3431 77.7415C22.7247 77.634 23.0985 77.4138 23.4644 77.0809C23.8407 76.7386 24.1071 76.3796 24.2636 76.0037C24.4166 75.6311 24.4541 75.2562 24.3761 74.8793C24.2916 74.502 24.0875 74.1355 23.7641 73.78C23.5442 73.5384 23.3318 73.3499 23.1268 73.2147C22.9217 73.0795 22.731 72.9912 22.5546 72.9498C22.3715 72.9082 22.21 72.9005 22.07 72.9269C21.9269 72.9499 21.8057 72.9971 21.7066 73.0683L20.4724 71.7118C20.7225 71.5221 21.0193 71.394 21.3626 71.3277C21.6995 71.261 22.066 71.2651 22.4621 71.34C22.8549 71.418 23.2602 71.5792 23.6781 71.8236C24.0894 72.0676 24.4929 72.4071 24.8886 72.8421C25.4256 73.4323 25.7743 74.0583 25.9347 74.72C26.095 75.3817 26.0725 76.033 25.8671 76.6741C25.6586 77.3118 25.2765 77.8834 24.7207 78.389C24.1512 78.9072 23.5393 79.2367 22.8852 79.3776C22.2279 79.515 21.5776 79.4694 20.9343 79.2408C20.2875 79.0153 19.7019 78.6144 19.1775 78.0379C18.6373 77.4442 18.2918 76.8217 18.1409 76.1704C17.9868 75.5156 18.0188 74.8746 18.2367 74.2473C18.4512 73.6232 18.8432 73.052 19.4128 72.5338C19.4852 72.4679 19.5645 72.3989 19.6505 72.327C19.7365 72.2551 19.8016 72.2053 19.8458 72.1777L24.4623 77.2519Z" fill="white"/>
<path d="M15.2129 64.1215L14.1245 64.4639L12.618 59.6764L13.7064 59.3339L15.2129 64.1215Z" fill="white"/>
<path d="M9.49337 41.4707L16.5675 44.7348L16.251 47.1855L8.57243 48.6005L8.81634 46.7122L15.7898 45.7284L15.7522 46.02L9.24946 43.359L9.49337 41.4707Z" fill="white"/>
<path d="M18.208 39.2527C17.9428 39.9904 17.5554 40.5851 17.0459 41.0367C16.5321 41.4868 15.943 41.7734 15.2788 41.8966C14.6162 42.0155 13.9314 41.9478 13.2244 41.6936C12.513 41.4378 11.944 41.0548 11.5175 40.5444C11.0882 40.028 10.8209 39.4336 10.7156 38.7609C10.6103 38.0883 10.6902 37.3831 10.9555 36.6453C11.2207 35.9076 11.6081 35.3129 12.1175 34.8613C12.627 34.4097 13.2109 34.1237 13.8691 34.0033C14.5245 33.8769 15.2079 33.9416 15.9193 34.1973C16.6264 34.4515 17.1967 34.8375 17.6304 35.3555C18.0657 35.869 18.3382 36.4629 18.4479 37.1371C18.5532 37.8097 18.4733 38.5149 18.208 39.2527ZM16.7918 38.7435C16.9354 38.3439 16.9687 37.9616 16.8916 37.5967C16.8145 37.2318 16.6413 36.9067 16.372 36.6214C16.0982 36.3345 15.7373 36.1106 15.2894 35.9495C14.8415 35.7885 14.425 35.733 14.0401 35.783C13.6507 35.8315 13.3123 35.9727 13.0249 36.2066C12.7375 36.4405 12.522 36.7572 12.3783 37.1569C12.2362 37.5521 12.2007 37.9336 12.2718 38.3013C12.3445 38.6647 12.5156 38.989 12.7849 39.2743C13.0499 39.558 13.4064 39.7804 13.8543 39.9414C14.3022 40.1024 14.7231 40.1595 15.1168 40.1126C15.5062 40.0641 15.8468 39.9237 16.1386 39.6914C16.4319 39.4547 16.6497 39.1388 16.7918 38.7435Z" fill="white"/>
<path d="M20.7448 33.484L14.4534 29.5239L15.4229 27.9837L21.7143 31.9437L20.7448 33.484ZM13.7807 28.017C13.6216 28.2698 13.4153 28.4487 13.1617 28.5537C12.9066 28.6524 12.6566 28.6246 12.4118 28.4705C12.1709 28.3188 12.0417 28.1079 12.0242 27.8378C12.0093 27.5637 12.0814 27.3003 12.2405 27.0475C12.3971 26.7987 12.6009 26.6237 12.852 26.5226C13.1032 26.4215 13.3492 26.4468 13.5901 26.5984C13.835 26.7526 13.9681 26.9659 13.9895 27.2386C14.0069 27.5087 13.9373 27.7682 13.7807 28.017Z" fill="white"/>
<path d="M24.2033 28.5842L18.9103 23.3643L20.203 22.0535L21.9623 23.7886L21.4931 23.9255C21.2966 23.6661 21.1412 23.3917 21.027 23.1021C20.9095 22.8092 20.848 22.5126 20.8426 22.2124C20.8339 21.9089 20.8912 21.6082 21.0145 21.3103C21.1378 21.0125 21.3339 20.7273 21.6026 20.4548C21.8155 20.2389 21.9993 20.0858 22.1537 19.9956C22.3082 19.8989 22.4101 19.8453 22.4595 19.8351L23.4248 21.2589C23.3687 21.2692 23.2733 21.3095 23.1385 21.3797C23.0036 21.4433 22.8527 21.5599 22.6855 21.7293C22.4201 21.9985 22.2438 22.2703 22.1566 22.5448C22.0694 22.8127 22.0514 23.0768 22.1027 23.3371C22.1507 23.5942 22.2448 23.8377 22.385 24.0678C22.5219 24.2945 22.6817 24.498 22.8645 24.6782L25.496 27.2734L24.2033 28.5842Z" fill="white"/>
<path d="M35.0279 8.57098L38.8722 18.8144L37.1748 19.4514L33.3305 9.20801L35.0279 8.57098Z" fill="white"/>
<path d="M41.4134 14.7639L41.2277 13.4682L46.3761 12.7302L46.2179 13.1065C46.2139 13.0788 46.2096 13.0487 46.2049 13.0164C46.1997 12.9794 46.1953 12.9494 46.192 12.9263C46.1463 12.6076 46.032 12.3199 45.8491 12.0632C45.6655 11.802 45.416 11.6067 45.1004 11.4775C44.7842 11.3437 44.4021 11.3089 43.954 11.3731C43.5105 11.4367 43.1384 11.5867 42.8376 11.8231C42.5407 12.0542 42.3273 12.3583 42.1975 12.7352C42.0723 13.1114 42.0448 13.5444 42.115 14.034C42.1871 14.5375 42.3348 14.9595 42.5581 15.2999C42.7806 15.6358 43.0698 15.8772 43.4256 16.0242C43.7854 16.1659 44.2031 16.2027 44.6789 16.1345C45.0023 16.0881 45.2775 16.018 45.5045 15.9242C45.7314 15.8304 45.9116 15.7221 46.0448 15.5992C46.182 15.4711 46.279 15.3417 46.3357 15.211C46.397 15.0797 46.426 14.953 46.4226 14.8309L48.2381 14.5706C48.2547 14.8841 48.1941 15.2016 48.0564 15.5231C47.9225 15.8392 47.7135 16.1403 47.4292 16.4262C47.1442 16.7075 46.7833 16.9525 46.3465 17.1612C45.9137 17.3647 45.4062 17.5082 44.8242 17.5916C44.0342 17.7048 43.3204 17.6421 42.6828 17.4035C42.0452 17.1649 41.5187 16.7807 41.1033 16.251C40.6925 15.7206 40.4339 15.0835 40.3273 14.3398C40.218 13.5776 40.2886 12.8862 40.5391 12.2657C40.7942 11.6446 41.1969 11.1319 41.7471 10.7278C42.2967 10.319 42.9572 10.0593 43.7286 9.94872C44.5232 9.83483 45.2323 9.89818 45.8561 10.1388C46.4845 10.3787 46.9972 10.7649 47.3941 11.2973C47.7903 11.8251 48.043 12.4701 48.1523 13.2323C48.1662 13.3293 48.1788 13.4335 48.19 13.5451C48.2013 13.6566 48.206 13.7384 48.204 13.7906L41.4134 14.7639Z" fill="white"/>
<path d="M59.2517 18.7137C58.827 18.5865 58.4365 18.4184 58.0801 18.2094C57.7282 18.0017 57.4306 17.7592 57.1873 17.4817C56.9485 17.2056 56.7834 16.9029 56.6921 16.5735C56.6065 16.241 56.6186 15.8914 56.7284 15.5248C56.7364 15.498 56.7445 15.4712 56.7525 15.4444C56.7605 15.4175 56.7679 15.3929 56.7746 15.3706L58.5315 15.8967C58.5248 15.9191 58.5188 15.9392 58.5134 15.9571C58.5094 15.9705 58.5034 15.9906 58.4954 16.0174C58.4083 16.308 58.4746 16.5665 58.6942 16.7931C58.9196 17.0164 59.2625 17.1971 59.723 17.335C59.9734 17.4099 60.2161 17.4534 60.4512 17.4653C60.6908 17.4786 60.8944 17.4495 61.062 17.3779C61.234 17.3076 61.3462 17.1853 61.3984 17.0109C61.4827 16.7293 61.3977 16.4846 61.1432 16.2769C60.8932 16.0705 60.4745 15.8258 59.887 15.5427C59.5647 15.3828 59.2528 15.2042 58.9515 15.0068C58.6501 14.8094 58.3878 14.5871 58.1646 14.34C57.9459 14.0943 57.7907 13.8237 57.6989 13.5283C57.6116 13.2343 57.6208 12.9106 57.7266 12.5575C57.8672 12.0881 58.1235 11.7361 58.4958 11.5017C58.8738 11.2642 59.3223 11.133 59.8412 11.1082C60.3646 11.0847 60.9102 11.1579 61.478 11.3279C62.0234 11.4912 62.504 11.7326 62.9199 12.052C63.3357 12.3714 63.6365 12.7415 63.8222 13.1625C64.0124 13.5848 64.0365 14.0329 63.8946 14.5068C63.8893 14.5247 63.8833 14.5448 63.8766 14.5671C63.8712 14.585 63.8665 14.6007 63.8625 14.6141L62.119 14.092C62.123 14.0786 62.127 14.0652 62.131 14.0517C62.1351 14.0383 62.1398 14.0227 62.1451 14.0048C62.2067 13.7992 62.1921 13.6121 62.1012 13.4436C62.0104 13.2752 61.8716 13.1289 61.6847 13.0047C61.4978 12.8805 61.2903 12.7843 61.0623 12.716C60.8611 12.6558 60.6466 12.6159 60.4186 12.5963C60.192 12.5723 59.991 12.5925 59.8159 12.657C59.642 12.717 59.527 12.8408 59.4707 13.0286C59.4172 13.2074 59.4475 13.3748 59.5615 13.5307C59.6756 13.6867 59.8531 13.8421 60.0941 13.9971C60.3365 14.1476 60.621 14.3035 60.9479 14.4647C61.2581 14.6161 61.5646 14.7882 61.8673 14.9812C62.1745 15.1754 62.4433 15.3923 62.6736 15.6318C62.9039 15.8713 63.0659 16.1438 63.1594 16.4495C63.2588 16.7521 63.253 17.0889 63.1418 17.46C63.024 17.8534 62.8342 18.1619 62.5724 18.3855C62.3106 18.6091 61.998 18.7664 61.6346 18.8573C61.2771 18.9451 60.8934 18.9739 60.4835 18.9437C60.0736 18.9135 59.663 18.8369 59.2517 18.7137Z" fill="white"/>
<path d="M64.9396 20.8656L68.5532 14.3689L70.1437 15.2536L66.5301 21.7502L64.9396 20.8656ZM70.0215 13.6157C69.7605 13.4705 69.5707 13.2741 69.4521 13.0266C69.3398 12.7772 69.354 12.5261 69.4946 12.2733C69.633 12.0245 69.8366 11.8841 70.1054 11.8521C70.3783 11.8223 70.6452 11.88 70.9062 12.0252C71.1631 12.1681 71.3489 12.3622 71.4634 12.6074C71.578 12.8527 71.5661 13.0998 71.4277 13.3485C71.2871 13.6014 71.0812 13.7459 70.8101 13.782C70.5413 13.814 70.2785 13.7586 70.0215 13.6157Z" fill="white"/>
<path d="M72.525 26.4575C72.3258 26.2812 72.1401 26.0827 71.9679 25.8618C71.7957 25.6409 71.6703 25.4023 71.5918 25.1459C71.5133 24.8895 71.5113 24.6136 71.5858 24.3181C71.6603 24.0226 71.8444 23.7089 72.1381 23.3768C72.2062 23.2999 72.2742 23.223 72.3422 23.1461C72.4133 23.0657 72.486 22.9836 72.5602 22.8997L74.8236 20.3412L73.5077 19.177L74.4817 18.076L75.0164 18.5491C75.1982 18.7099 75.3477 18.8297 75.4649 18.9085C75.5852 18.9838 75.6961 19.0133 75.7976 18.9972C75.8991 18.9811 76.0125 18.9163 76.1378 18.8028C76.2697 18.689 76.4362 18.5184 76.6371 18.2912L77.421 17.4052L78.8051 18.6297L77.1817 20.4647L78.8385 21.9303L77.8645 23.0313L76.2077 21.5657L74.2319 23.7991C74.1731 23.8655 74.1144 23.9319 74.0556 23.9984C74 24.0613 73.9459 24.1224 73.8933 24.1819C73.6645 24.4405 73.512 24.6763 73.4357 24.8892C73.3595 25.1022 73.4385 25.3122 73.6727 25.5194C73.7845 25.6184 73.8986 25.7006 74.0151 25.7662C74.135 25.8349 74.2287 25.8805 74.2962 25.9028L73.3407 26.9828C73.2526 26.9485 73.1349 26.888 72.9874 26.8011C72.8399 26.7143 72.6858 26.5997 72.525 26.4575Z" fill="white"/>
<path d="M77.2893 26.6145L78.3471 25.8435L81.4106 30.0464L81.0041 30.0829C81.0267 30.0664 81.0512 30.0485 81.0776 30.0293C81.1078 30.0073 81.1323 29.9894 81.1512 29.9757C81.4114 29.786 81.612 29.5503 81.7531 29.2684C81.8979 28.9839 81.9535 28.6719 81.9199 28.3326C81.89 27.9906 81.7417 27.6367 81.4751 27.2709C81.2112 26.9088 80.9044 26.6503 80.5546 26.4952C80.2113 26.3412 79.8428 26.2951 79.449 26.3569C79.0579 26.4225 78.6625 26.601 78.2628 26.8924C77.8517 27.192 77.5481 27.5202 77.3519 27.8769C77.1594 28.2308 77.0816 28.5994 77.1184 28.9826C77.1616 29.3668 77.3249 29.7531 77.608 30.1416C77.8004 30.4056 77.9912 30.6158 78.1804 30.7724C78.3696 30.929 78.5497 31.0374 78.7206 31.0976C78.8981 31.1589 79.0578 31.1839 79.1999 31.1728C79.3446 31.1654 79.4702 31.1317 79.5765 31.0715L80.6568 32.5536C80.3876 32.7151 80.0787 32.8103 79.7302 32.8392C79.3881 32.869 79.0242 32.8253 78.6385 32.7081C78.2565 32.588 77.871 32.384 77.4819 32.0958C77.0994 31.8087 76.735 31.4276 76.3886 30.9524C75.9186 30.3075 75.6396 29.6475 75.5517 28.9724C75.4639 28.2973 75.5567 27.6522 75.8302 27.037C76.1064 26.4257 76.5481 25.8987 77.1553 25.4562C77.7775 25.0026 78.4214 24.7412 79.0869 24.6718C79.7552 24.6063 80.3968 24.7219 81.0116 25.0187C81.6302 25.3128 82.169 25.7747 82.628 26.4045C83.1008 27.0531 83.377 27.7094 83.4567 28.3732C83.539 29.0408 83.438 29.6746 83.1535 30.2746C82.8728 30.8719 82.4213 31.3974 81.7991 31.8509C81.7199 31.9086 81.6336 31.9686 81.5404 32.0308C81.4471 32.093 81.377 32.1354 81.33 32.1581L77.2893 26.6145Z" fill="white"/>
<path d="M85.0635 40.6661L86.1825 40.4433L87.1626 45.3657L86.0436 45.5885L85.0635 40.6661Z" fill="white"/>
</g>
<defs>
<clipPath id="clip0_335_2">
<rect width="100" height="100" rx="50" fill="white"/>
</clipPath>
</defs>
</svg>
