<svg width="699" height="299" viewBox="0 0 699 299" fill="none" xmlns="http://www.w3.org/2000/svg">
<g clip-path="url(#clip0_254_2)">
<rect width="699" height="299" fill="#E7E9EB"/>
<rect x="-0.5" y="-0.5" width="49" height="49" stroke="#CED0D2" stroke-opacity="0.25"/>
<rect x="49.5" y="-0.5" width="49" height="49" stroke="#CED0D2" stroke-opacity="0.25"/>
<rect x="49.5" y="-0.5" width="49" height="49" stroke="#CED0D2" stroke-opacity="0.25"/>
<rect x="99.5" y="-0.5" width="49" height="49" stroke="#CED0D2" stroke-opacity="0.25"/>
<rect x="149.5" y="-0.5" width="49" height="49" stroke="#CED0D2" stroke-opacity="0.25"/>
<rect x="199.5" y="-0.5" width="49" height="49" stroke="#CED0D2" stroke-opacity="0.25"/>
<rect x="249.5" y="-0.5" width="49" height="49" stroke="#CED0D2" stroke-opacity="0.25"/>
<rect x="299.5" y="-0.5" width="49" height="49" stroke="#CED0D2" stroke-opacity="0.25"/>
<rect x="349.5" y="-0.5" width="49" height="49" stroke="#CED0D2" stroke-opacity="0.25"/>
<rect x="399.5" y="-0.5" width="49" height="49" stroke="#CED0D2" stroke-opacity="0.25"/>
<rect x="449.5" y="-0.5" width="49" height="49" stroke="#CED0D2" stroke-opacity="0.25"/>
<rect x="499.5" y="-0.5" width="49" height="49" stroke="#CED0D2" stroke-opacity="0.25"/>
<rect x="549.5" y="-0.5" width="49" height="49" stroke="#CED0D2" stroke-opacity="0.25"/>
<rect x="549.5" y="-0.5" width="49" height="49" stroke="#CED0D2" stroke-opacity="0.25"/>
<rect x="599.5" y="-0.5" width="49" height="49" stroke="#CED0D2" stroke-opacity="0.25"/>
<rect x="649.5" y="-0.5" width="49" height="49" stroke="#CED0D2" stroke-opacity="0.25"/>
<rect x="-0.5" y="49.5" width="49" height="49" stroke="#CED0D2" stroke-opacity="0.25"/>
<rect x="49.5" y="49.5" width="49" height="49" stroke="#CED0D2" stroke-opacity="0.25"/>
<rect x="49.5" y="49.5" width="49" height="49" stroke="#CED0D2" stroke-opacity="0.25"/>
<rect x="99.5" y="49.5" width="49" height="49" stroke="#CED0D2" stroke-opacity="0.25"/>
<rect x="149.5" y="49.5" width="49" height="49" stroke="#CED0D2" stroke-opacity="0.25"/>
<rect x="199.5" y="49.5" width="49" height="49" stroke="#CED0D2" stroke-opacity="0.25"/>
<rect x="249.5" y="49.5" width="49" height="49" stroke="#CED0D2" stroke-opacity="0.25"/>
<rect x="299.5" y="49.5" width="49" height="49" stroke="#CED0D2" stroke-opacity="0.25"/>
<rect x="349.5" y="49.5" width="49" height="49" stroke="#CED0D2" stroke-opacity="0.25"/>
<rect x="399.5" y="49.5" width="49" height="49" stroke="#CED0D2" stroke-opacity="0.25"/>
<rect x="449.5" y="49.5" width="49" height="49" stroke="#CED0D2" stroke-opacity="0.25"/>
<rect x="499.5" y="49.5" width="49" height="49" stroke="#CED0D2" stroke-opacity="0.25"/>
<rect x="549.5" y="49.5" width="49" height="49" stroke="#CED0D2" stroke-opacity="0.25"/>
<rect x="549.5" y="49.5" width="49" height="49" stroke="#CED0D2" stroke-opacity="0.25"/>
<rect x="599.5" y="49.5" width="49" height="49" stroke="#CED0D2" stroke-opacity="0.25"/>
<rect x="649.5" y="49.5" width="49" height="49" stroke="#CED0D2" stroke-opacity="0.25"/>
<rect x="-0.5" y="99.5" width="49" height="49" stroke="#CED0D2" stroke-opacity="0.25"/>
<rect x="49.5" y="99.5" width="49" height="49" stroke="#CED0D2" stroke-opacity="0.25"/>
<rect x="49.5" y="99.5" width="49" height="49" stroke="#CED0D2" stroke-opacity="0.25"/>
<rect x="99.5" y="99.5" width="49" height="49" stroke="#CED0D2" stroke-opacity="0.25"/>
<rect x="149.5" y="99.5" width="49" height="49" stroke="#CED0D2" stroke-opacity="0.25"/>
<rect x="199.5" y="99.5" width="49" height="49" stroke="#CED0D2" stroke-opacity="0.25"/>
<rect x="249.5" y="99.5" width="49" height="49" stroke="#CED0D2" stroke-opacity="0.25"/>
<rect x="299.5" y="99.5" width="49" height="49" stroke="#CED0D2" stroke-opacity="0.25"/>
<rect x="349.5" y="99.5" width="49" height="49" stroke="#CED0D2" stroke-opacity="0.25"/>
<rect x="399.5" y="99.5" width="49" height="49" stroke="#CED0D2" stroke-opacity="0.25"/>
<rect x="449.5" y="99.5" width="49" height="49" stroke="#CED0D2" stroke-opacity="0.25"/>
<rect x="499.5" y="99.5" width="49" height="49" stroke="#CED0D2" stroke-opacity="0.25"/>
<rect x="549.5" y="99.5" width="49" height="49" stroke="#CED0D2" stroke-opacity="0.25"/>
<rect x="549.5" y="99.5" width="49" height="49" stroke="#CED0D2" stroke-opacity="0.25"/>
<rect x="599.5" y="99.5" width="49" height="49" stroke="#CED0D2" stroke-opacity="0.25"/>
<rect x="649.5" y="99.5" width="49" height="49" stroke="#CED0D2" stroke-opacity="0.25"/>
<rect x="-0.5" y="149.5" width="49" height="49" stroke="#CED0D2" stroke-opacity="0.25"/>
<rect x="49.5" y="149.5" width="49" height="49" stroke="#CED0D2" stroke-opacity="0.25"/>
<rect x="49.5" y="149.5" width="49" height="49" stroke="#CED0D2" stroke-opacity="0.25"/>
<rect x="99.5" y="149.5" width="49" height="49" stroke="#CED0D2" stroke-opacity="0.25"/>
<rect x="149.5" y="149.5" width="49" height="49" stroke="#CED0D2" stroke-opacity="0.25"/>
<rect x="199.5" y="149.5" width="49" height="49" stroke="#CED0D2" stroke-opacity="0.25"/>
<rect x="249.5" y="149.5" width="49" height="49" stroke="#CED0D2" stroke-opacity="0.25"/>
<rect x="299.5" y="149.5" width="49" height="49" stroke="#CED0D2" stroke-opacity="0.25"/>
<rect x="349.5" y="149.5" width="49" height="49" stroke="#CED0D2" stroke-opacity="0.25"/>
<rect x="399.5" y="149.5" width="49" height="49" stroke="#CED0D2" stroke-opacity="0.25"/>
<rect x="449.5" y="149.5" width="49" height="49" stroke="#CED0D2" stroke-opacity="0.25"/>
<rect x="499.5" y="149.5" width="49" height="49" stroke="#CED0D2" stroke-opacity="0.25"/>
<rect x="549.5" y="149.5" width="49" height="49" stroke="#CED0D2" stroke-opacity="0.25"/>
<rect x="549.5" y="149.5" width="49" height="49" stroke="#CED0D2" stroke-opacity="0.25"/>
<rect x="599.5" y="149.5" width="49" height="49" stroke="#CED0D2" stroke-opacity="0.25"/>
<rect x="649.5" y="149.5" width="49" height="49" stroke="#CED0D2" stroke-opacity="0.25"/>
<rect x="-0.5" y="199.5" width="49" height="49" stroke="#CED0D2" stroke-opacity="0.25"/>
<rect x="49.5" y="199.5" width="49" height="49" stroke="#CED0D2" stroke-opacity="0.25"/>
<rect x="49.5" y="199.5" width="49" height="49" stroke="#CED0D2" stroke-opacity="0.25"/>
<rect x="99.5" y="199.5" width="49" height="49" stroke="#CED0D2" stroke-opacity="0.25"/>
<rect x="149.5" y="199.5" width="49" height="49" stroke="#CED0D2" stroke-opacity="0.25"/>
<rect x="199.5" y="199.5" width="49" height="49" stroke="#CED0D2" stroke-opacity="0.25"/>
<rect x="249.5" y="199.5" width="49" height="49" stroke="#CED0D2" stroke-opacity="0.25"/>
<rect x="299.5" y="199.5" width="49" height="49" stroke="#CED0D2" stroke-opacity="0.25"/>
<rect x="349.5" y="199.5" width="49" height="49" stroke="#CED0D2" stroke-opacity="0.25"/>
<rect x="399.5" y="199.5" width="49" height="49" stroke="#CED0D2" stroke-opacity="0.25"/>
<rect x="449.5" y="199.5" width="49" height="49" stroke="#CED0D2" stroke-opacity="0.25"/>
<rect x="499.5" y="199.5" width="49" height="49" stroke="#CED0D2" stroke-opacity="0.25"/>
<rect x="549.5" y="199.5" width="49" height="49" stroke="#CED0D2" stroke-opacity="0.25"/>
<rect x="549.5" y="199.5" width="49" height="49" stroke="#CED0D2" stroke-opacity="0.25"/>
<rect x="599.5" y="199.5" width="49" height="49" stroke="#CED0D2" stroke-opacity="0.25"/>
<rect x="649.5" y="199.5" width="49" height="49" stroke="#CED0D2" stroke-opacity="0.25"/>
<rect x="-0.5" y="249.5" width="49" height="49" stroke="#CED0D2" stroke-opacity="0.25"/>
<rect x="49.5" y="249.5" width="49" height="49" stroke="#CED0D2" stroke-opacity="0.25"/>
<rect x="49.5" y="249.5" width="49" height="49" stroke="#CED0D2" stroke-opacity="0.25"/>
<rect x="99.5" y="249.5" width="49" height="49" stroke="#CED0D2" stroke-opacity="0.25"/>
<rect x="149.5" y="249.5" width="49" height="49" stroke="#CED0D2" stroke-opacity="0.25"/>
<rect x="199.5" y="249.5" width="49" height="49" stroke="#CED0D2" stroke-opacity="0.25"/>
<rect x="249.5" y="249.5" width="49" height="49" stroke="#CED0D2" stroke-opacity="0.25"/>
<rect x="299.5" y="249.5" width="49" height="49" stroke="#CED0D2" stroke-opacity="0.25"/>
<rect x="349.5" y="249.5" width="49" height="49" stroke="#CED0D2" stroke-opacity="0.25"/>
<rect x="399.5" y="249.5" width="49" height="49" stroke="#CED0D2" stroke-opacity="0.25"/>
<rect x="449.5" y="249.5" width="49" height="49" stroke="#CED0D2" stroke-opacity="0.25"/>
<rect x="499.5" y="249.5" width="49" height="49" stroke="#CED0D2" stroke-opacity="0.25"/>
<rect x="549.5" y="249.5" width="49" height="49" stroke="#CED0D2" stroke-opacity="0.25"/>
<rect x="549.5" y="249.5" width="49" height="49" stroke="#CED0D2" stroke-opacity="0.25"/>
<rect x="599.5" y="249.5" width="49" height="49" stroke="#CED0D2" stroke-opacity="0.25"/>
<rect x="649.5" y="249.5" width="49" height="49" stroke="#CED0D2" stroke-opacity="0.25"/>
</g>
<defs>
<clipPath id="clip0_254_2">
<rect width="699" height="299" fill="white"/>
</clipPath>
</defs>
</svg>
