<svg width="14" height="13" viewBox="0 0 14 13" fill="none" xmlns="http://www.w3.org/2000/svg">
<path d="M11.0815 12.3144C10.8204 12.2683 10.5883 12.1204 10.4362 11.9032C10.2841 11.686 10.2245 11.4172 10.2705 11.1561L11.3248 5.17712L1.83406 11.8226C1.61681 11.9747 1.34802 12.0343 1.08683 11.9882C0.825647 11.9422 0.593453 11.7943 0.441331 11.577C0.289209 11.3597 0.22962 11.091 0.275675 10.8298C0.321729 10.5686 0.469654 10.3364 0.686906 10.1843L10.1776 3.53882L4.19862 2.48456C3.94123 2.43455 3.71377 2.28544 3.56525 2.06935C3.41673 1.85327 3.35902 1.58749 3.40455 1.32927C3.45008 1.07105 3.59521 0.841036 3.80868 0.68878C4.02215 0.536524 4.28689 0.474203 4.54586 0.515241L12.9022 1.9887C13.1634 2.03478 13.3955 2.18269 13.5476 2.3999C13.6997 2.61711 13.7593 2.88583 13.7133 3.14698L12.2398 11.5033C12.1937 11.7645 12.0458 11.9966 11.8286 12.1487C11.6114 12.3008 11.3427 12.3604 11.0815 12.3144V12.3144Z" fill="white"/>
</svg>
